<mxfile host="app.diagrams.net" modified="2021-01-21T03:51:51.348Z" agent="5.0 (Windows NT 10.0; Win64; x64) AppleWebKit/537.36 (KHTML, like Gecko) Chrome/87.0.4280.141 Safari/537.36 Edg/87.0.664.75" etag="PbdKOPt81cg6HRL-uFfW" version="14.2.6" type="github">
  <diagram id="Ft57BWniFfMgqN6n-xT4" name="Page-1">
    <mxGraphModel dx="862" dy="2963" grid="1" gridSize="10" guides="1" tooltips="1" connect="1" arrows="1" fold="1" page="1" pageScale="1" pageWidth="1169" pageHeight="827" math="0" shadow="0">
      <root>
        <mxCell id="0" />
        <mxCell id="1" parent="0" />
        <mxCell id="2QcikKB0XpCSD9qSnk93-126" value="Tiempo&amp;nbsp;" style="text;html=1;strokeColor=none;fillColor=none;align=center;verticalAlign=middle;whiteSpace=wrap;rounded=0;rotation=-90;" vertex="1" parent="1">
          <mxGeometry x="-10" y="-2250" width="60" height="20" as="geometry" />
        </mxCell>
        <mxCell id="2QcikKB0XpCSD9qSnk93-127" value="" style="endArrow=classic;html=1;" edge="1" parent="1">
          <mxGeometry width="50" height="50" relative="1" as="geometry">
            <mxPoint x="30" y="-2280" as="sourcePoint" />
            <mxPoint x="30" y="-1670" as="targetPoint" />
          </mxGeometry>
        </mxCell>
        <mxCell id="2QcikKB0XpCSD9qSnk93-128" value="" style="ellipse;whiteSpace=wrap;html=1;aspect=fixed;fillColor=#647687;strokeColor=#314354;fontColor=#ffffff;" vertex="1" parent="1">
          <mxGeometry x="90" y="-2260" width="20" height="20" as="geometry" />
        </mxCell>
        <mxCell id="2QcikKB0XpCSD9qSnk93-129" value="" style="ellipse;whiteSpace=wrap;html=1;aspect=fixed;fillColor=#647687;strokeColor=#314354;fontColor=#ffffff;" vertex="1" parent="1">
          <mxGeometry x="90" y="-2200" width="20" height="20" as="geometry" />
        </mxCell>
        <mxCell id="2QcikKB0XpCSD9qSnk93-130" value="" style="ellipse;whiteSpace=wrap;html=1;aspect=fixed;fillColor=#647687;strokeColor=#314354;fontColor=#ffffff;" vertex="1" parent="1">
          <mxGeometry x="90" y="-1990" width="20" height="20" as="geometry" />
        </mxCell>
        <mxCell id="2QcikKB0XpCSD9qSnk93-131" value="" style="endArrow=classic;html=1;exitX=0.5;exitY=1;exitDx=0;exitDy=0;entryX=0.5;entryY=0;entryDx=0;entryDy=0;" edge="1" source="2QcikKB0XpCSD9qSnk93-128" target="2QcikKB0XpCSD9qSnk93-129" parent="1">
          <mxGeometry width="50" height="50" relative="1" as="geometry">
            <mxPoint x="360" y="-2080" as="sourcePoint" />
            <mxPoint x="410" y="-2130" as="targetPoint" />
          </mxGeometry>
        </mxCell>
        <mxCell id="2QcikKB0XpCSD9qSnk93-132" value="" style="endArrow=classic;html=1;exitX=0.5;exitY=1;exitDx=0;exitDy=0;entryX=0.5;entryY=0;entryDx=0;entryDy=0;" edge="1" source="2QcikKB0XpCSD9qSnk93-129" target="2QcikKB0XpCSD9qSnk93-130" parent="1">
          <mxGeometry width="50" height="50" relative="1" as="geometry">
            <mxPoint x="360" y="-2080" as="sourcePoint" />
            <mxPoint x="410" y="-2130" as="targetPoint" />
          </mxGeometry>
        </mxCell>
        <mxCell id="2QcikKB0XpCSD9qSnk93-133" value="&lt;h1&gt;Major&lt;/h1&gt;&lt;div&gt;feature for next release&lt;/div&gt;" style="text;html=1;spacing=5;spacingTop=-20;whiteSpace=wrap;overflow=hidden;rounded=0;fillColor=#FFFFFF;gradientColor=#ffffff;" vertex="1" parent="1">
          <mxGeometry x="170" y="-2340" width="140" height="70" as="geometry" />
        </mxCell>
        <mxCell id="2QcikKB0XpCSD9qSnk93-134" value="" style="ellipse;whiteSpace=wrap;html=1;aspect=fixed;fillColor=#0050ef;strokeColor=#001DBC;fontColor=#ffffff;" vertex="1" parent="1">
          <mxGeometry x="200" y="-2220" width="20" height="20" as="geometry" />
        </mxCell>
        <mxCell id="2QcikKB0XpCSD9qSnk93-135" value="" style="endArrow=classic;html=1;exitX=0.25;exitY=1;exitDx=0;exitDy=0;" edge="1" source="2QcikKB0XpCSD9qSnk93-133" parent="1">
          <mxGeometry width="50" height="50" relative="1" as="geometry">
            <mxPoint x="170" y="-1990" as="sourcePoint" />
            <mxPoint x="210" y="-2220" as="targetPoint" />
          </mxGeometry>
        </mxCell>
        <mxCell id="2QcikKB0XpCSD9qSnk93-136" value="" style="ellipse;whiteSpace=wrap;html=1;aspect=fixed;fillColor=#f0a30a;strokeColor=#BD7000;fontColor=#ffffff;" vertex="1" parent="1">
          <mxGeometry x="340" y="-2270" width="20" height="20" as="geometry" />
        </mxCell>
        <mxCell id="2QcikKB0XpCSD9qSnk93-137" value="" style="ellipse;whiteSpace=wrap;html=1;aspect=fixed;fillColor=#f0a30a;strokeColor=#BD7000;fontColor=#ffffff;" vertex="1" parent="1">
          <mxGeometry x="340" y="-2230" width="20" height="20" as="geometry" />
        </mxCell>
        <mxCell id="2QcikKB0XpCSD9qSnk93-138" value="" style="ellipse;whiteSpace=wrap;html=1;aspect=fixed;fillColor=#f0a30a;strokeColor=#BD7000;fontColor=#ffffff;" vertex="1" parent="1">
          <mxGeometry x="340" y="-2040" width="20" height="20" as="geometry" />
        </mxCell>
        <mxCell id="2QcikKB0XpCSD9qSnk93-139" value="" style="ellipse;whiteSpace=wrap;html=1;aspect=fixed;fillColor=#f0a30a;strokeColor=#BD7000;fontColor=#ffffff;" vertex="1" parent="1">
          <mxGeometry x="340" y="-2150" width="20" height="20" as="geometry" />
        </mxCell>
        <mxCell id="2QcikKB0XpCSD9qSnk93-140" value="" style="ellipse;whiteSpace=wrap;html=1;aspect=fixed;fillColor=#f0a30a;strokeColor=#BD7000;fontColor=#ffffff;" vertex="1" parent="1">
          <mxGeometry x="340" y="-2190" width="20" height="20" as="geometry" />
        </mxCell>
        <mxCell id="2QcikKB0XpCSD9qSnk93-141" value="" style="ellipse;whiteSpace=wrap;html=1;aspect=fixed;fillColor=#f0a30a;strokeColor=#BD7000;fontColor=#ffffff;" vertex="1" parent="1">
          <mxGeometry x="340" y="-2110" width="20" height="20" as="geometry" />
        </mxCell>
        <mxCell id="2QcikKB0XpCSD9qSnk93-142" value="feature&amp;nbsp;&lt;br&gt;branches" style="text;html=1;strokeColor=none;fillColor=none;align=center;verticalAlign=middle;whiteSpace=wrap;rounded=0;" vertex="1" parent="1">
          <mxGeometry x="170" y="-2400" width="60" height="30" as="geometry" />
        </mxCell>
        <mxCell id="2QcikKB0XpCSD9qSnk93-143" value="develop" style="text;html=1;strokeColor=none;fillColor=none;align=center;verticalAlign=middle;whiteSpace=wrap;rounded=0;" vertex="1" parent="1">
          <mxGeometry x="320" y="-2400" width="60" height="30" as="geometry" />
        </mxCell>
        <mxCell id="2QcikKB0XpCSD9qSnk93-144" style="edgeStyle=orthogonalEdgeStyle;rounded=0;orthogonalLoop=1;jettySize=auto;html=1;exitX=0.25;exitY=1;exitDx=0;exitDy=0;entryX=0;entryY=0.5;entryDx=0;entryDy=0;" edge="1" source="2QcikKB0XpCSD9qSnk93-145" target="2QcikKB0XpCSD9qSnk93-128" parent="1">
          <mxGeometry relative="1" as="geometry" />
        </mxCell>
        <mxCell id="2QcikKB0XpCSD9qSnk93-145" value="&lt;h1&gt;Feature&lt;/h1&gt;&lt;div&gt;for future release&lt;/div&gt;" style="text;html=1;spacing=5;spacingTop=-20;whiteSpace=wrap;overflow=hidden;rounded=0;fillColor=#FFFFFF;gradientColor=#ffffff;" vertex="1" parent="1">
          <mxGeometry x="10" y="-2340" width="140" height="70" as="geometry" />
        </mxCell>
        <mxCell id="2QcikKB0XpCSD9qSnk93-146" value="" style="endArrow=classic;html=1;exitX=0.5;exitY=1;exitDx=0;exitDy=0;entryX=0.5;entryY=0;entryDx=0;entryDy=0;" edge="1" source="2QcikKB0XpCSD9qSnk93-136" target="2QcikKB0XpCSD9qSnk93-137" parent="1">
          <mxGeometry width="50" height="50" relative="1" as="geometry">
            <mxPoint x="390" y="-2180" as="sourcePoint" />
            <mxPoint x="410" y="-2200" as="targetPoint" />
          </mxGeometry>
        </mxCell>
        <mxCell id="2QcikKB0XpCSD9qSnk93-147" value="" style="endArrow=classic;html=1;exitX=0.5;exitY=1;exitDx=0;exitDy=0;entryX=0.5;entryY=0;entryDx=0;entryDy=0;" edge="1" parent="1">
          <mxGeometry width="50" height="50" relative="1" as="geometry">
            <mxPoint x="351" y="-2209" as="sourcePoint" />
            <mxPoint x="351" y="-2189" as="targetPoint" />
          </mxGeometry>
        </mxCell>
        <mxCell id="2QcikKB0XpCSD9qSnk93-148" value="" style="endArrow=classic;html=1;exitX=0.5;exitY=1;exitDx=0;exitDy=0;entryX=0.5;entryY=0;entryDx=0;entryDy=0;" edge="1" source="2QcikKB0XpCSD9qSnk93-140" target="2QcikKB0XpCSD9qSnk93-139" parent="1">
          <mxGeometry width="50" height="50" relative="1" as="geometry">
            <mxPoint x="360" y="-2150" as="sourcePoint" />
            <mxPoint x="410" y="-2200" as="targetPoint" />
          </mxGeometry>
        </mxCell>
        <mxCell id="2QcikKB0XpCSD9qSnk93-149" value="" style="endArrow=classic;html=1;exitX=0.5;exitY=1;exitDx=0;exitDy=0;" edge="1" source="2QcikKB0XpCSD9qSnk93-139" parent="1">
          <mxGeometry width="50" height="50" relative="1" as="geometry">
            <mxPoint x="360" y="-2150" as="sourcePoint" />
            <mxPoint x="350" y="-2110" as="targetPoint" />
          </mxGeometry>
        </mxCell>
        <mxCell id="2QcikKB0XpCSD9qSnk93-150" value="" style="ellipse;whiteSpace=wrap;html=1;aspect=fixed;fillColor=#0050ef;strokeColor=#001DBC;fontColor=#ffffff;" vertex="1" parent="1">
          <mxGeometry x="200" y="-2180" width="20" height="20" as="geometry" />
        </mxCell>
        <mxCell id="2QcikKB0XpCSD9qSnk93-151" value="" style="ellipse;whiteSpace=wrap;html=1;aspect=fixed;fillColor=#0050ef;strokeColor=#001DBC;fontColor=#ffffff;" vertex="1" parent="1">
          <mxGeometry x="200" y="-2130" width="20" height="20" as="geometry" />
        </mxCell>
        <mxCell id="2QcikKB0XpCSD9qSnk93-152" value="" style="endArrow=classic;html=1;exitX=0.5;exitY=1;exitDx=0;exitDy=0;entryX=0.5;entryY=0;entryDx=0;entryDy=0;" edge="1" source="2QcikKB0XpCSD9qSnk93-134" target="2QcikKB0XpCSD9qSnk93-150" parent="1">
          <mxGeometry width="50" height="50" relative="1" as="geometry">
            <mxPoint x="360" y="-2070" as="sourcePoint" />
            <mxPoint x="410" y="-2120" as="targetPoint" />
          </mxGeometry>
        </mxCell>
        <mxCell id="2QcikKB0XpCSD9qSnk93-153" value="" style="endArrow=classic;html=1;exitX=0.5;exitY=1;exitDx=0;exitDy=0;entryX=0.5;entryY=0;entryDx=0;entryDy=0;" edge="1" source="2QcikKB0XpCSD9qSnk93-150" target="2QcikKB0XpCSD9qSnk93-151" parent="1">
          <mxGeometry width="50" height="50" relative="1" as="geometry">
            <mxPoint x="360" y="-2070" as="sourcePoint" />
            <mxPoint x="410" y="-2120" as="targetPoint" />
          </mxGeometry>
        </mxCell>
        <mxCell id="2QcikKB0XpCSD9qSnk93-154" value="" style="endArrow=classic;html=1;exitX=0.5;exitY=1;exitDx=0;exitDy=0;entryX=0.5;entryY=0;entryDx=0;entryDy=0;" edge="1" source="2QcikKB0XpCSD9qSnk93-141" target="2QcikKB0XpCSD9qSnk93-138" parent="1">
          <mxGeometry width="50" height="50" relative="1" as="geometry">
            <mxPoint x="360" y="-2070" as="sourcePoint" />
            <mxPoint x="410" y="-2120" as="targetPoint" />
          </mxGeometry>
        </mxCell>
        <mxCell id="2QcikKB0XpCSD9qSnk93-155" value="From this point on,&amp;nbsp;&lt;br&gt;&quot;next release&quot;&lt;br&gt;means the release after 1.0" style="text;html=1;strokeColor=none;fillColor=none;align=center;verticalAlign=middle;whiteSpace=wrap;rounded=0;" vertex="1" parent="1">
          <mxGeometry x="140" y="-2040" width="120" height="70" as="geometry" />
        </mxCell>
        <mxCell id="2QcikKB0XpCSD9qSnk93-156" value="" style="endArrow=classic;html=1;" edge="1" source="2QcikKB0XpCSD9qSnk93-155" parent="1">
          <mxGeometry width="50" height="50" relative="1" as="geometry">
            <mxPoint x="360" y="-2050" as="sourcePoint" />
            <mxPoint x="350" y="-2010" as="targetPoint" />
          </mxGeometry>
        </mxCell>
        <mxCell id="2QcikKB0XpCSD9qSnk93-157" style="edgeStyle=orthogonalEdgeStyle;rounded=0;orthogonalLoop=1;jettySize=auto;html=1;exitX=0.5;exitY=1;exitDx=0;exitDy=0;entryX=0.5;entryY=0;entryDx=0;entryDy=0;" edge="1" source="2QcikKB0XpCSD9qSnk93-158" target="2QcikKB0XpCSD9qSnk93-172" parent="1">
          <mxGeometry relative="1" as="geometry" />
        </mxCell>
        <mxCell id="2QcikKB0XpCSD9qSnk93-158" value="" style="ellipse;whiteSpace=wrap;html=1;aspect=fixed;fillColor=#f0a30a;strokeColor=#BD7000;fontColor=#ffffff;" vertex="1" parent="1">
          <mxGeometry x="340" y="-1960" width="20" height="20" as="geometry" />
        </mxCell>
        <mxCell id="2QcikKB0XpCSD9qSnk93-159" value="" style="endArrow=classic;html=1;exitX=0.5;exitY=1;exitDx=0;exitDy=0;entryX=0.5;entryY=0;entryDx=0;entryDy=0;" edge="1" source="2QcikKB0XpCSD9qSnk93-138" target="2QcikKB0XpCSD9qSnk93-158" parent="1">
          <mxGeometry width="50" height="50" relative="1" as="geometry">
            <mxPoint x="360" y="-2050" as="sourcePoint" />
            <mxPoint x="410" y="-2100" as="targetPoint" />
          </mxGeometry>
        </mxCell>
        <mxCell id="2QcikKB0XpCSD9qSnk93-160" value="release Branches" style="text;html=1;strokeColor=none;fillColor=none;align=center;verticalAlign=middle;whiteSpace=wrap;rounded=0;" vertex="1" parent="1">
          <mxGeometry x="450" y="-2400" width="60" height="30" as="geometry" />
        </mxCell>
        <mxCell id="2QcikKB0XpCSD9qSnk93-161" value="" style="ellipse;whiteSpace=wrap;html=1;aspect=fixed;fillColor=#647687;strokeColor=#314354;fontColor=#ffffff;" vertex="1" parent="1">
          <mxGeometry x="470" y="-2030" width="20" height="20" as="geometry" />
        </mxCell>
        <mxCell id="2QcikKB0XpCSD9qSnk93-162" value="" style="ellipse;whiteSpace=wrap;html=1;aspect=fixed;fillColor=#647687;strokeColor=#314354;fontColor=#ffffff;" vertex="1" parent="1">
          <mxGeometry x="470" y="-1990" width="20" height="20" as="geometry" />
        </mxCell>
        <mxCell id="2QcikKB0XpCSD9qSnk93-163" value="" style="edgeStyle=orthogonalEdgeStyle;rounded=0;orthogonalLoop=1;jettySize=auto;html=1;" edge="1" target="2QcikKB0XpCSD9qSnk93-165" parent="1">
          <mxGeometry relative="1" as="geometry">
            <mxPoint x="480" y="-1930" as="sourcePoint" />
          </mxGeometry>
        </mxCell>
        <mxCell id="2QcikKB0XpCSD9qSnk93-164" value="" style="ellipse;whiteSpace=wrap;html=1;aspect=fixed;fillColor=#647687;strokeColor=#314354;fontColor=#ffffff;" vertex="1" parent="1">
          <mxGeometry x="470" y="-1950" width="20" height="20" as="geometry" />
        </mxCell>
        <mxCell id="2QcikKB0XpCSD9qSnk93-165" value="" style="ellipse;whiteSpace=wrap;html=1;aspect=fixed;fillColor=#647687;strokeColor=#314354;fontColor=#ffffff;" vertex="1" parent="1">
          <mxGeometry x="470" y="-1900" width="20" height="20" as="geometry" />
        </mxCell>
        <mxCell id="2QcikKB0XpCSD9qSnk93-166" value="" style="endArrow=classic;html=1;exitX=1;exitY=0.5;exitDx=0;exitDy=0;entryX=0;entryY=0.5;entryDx=0;entryDy=0;" edge="1" source="2QcikKB0XpCSD9qSnk93-138" target="2QcikKB0XpCSD9qSnk93-161" parent="1">
          <mxGeometry width="50" height="50" relative="1" as="geometry">
            <mxPoint x="360" y="-2060" as="sourcePoint" />
            <mxPoint x="410" y="-2110" as="targetPoint" />
          </mxGeometry>
        </mxCell>
        <mxCell id="2QcikKB0XpCSD9qSnk93-167" value="" style="endArrow=classic;html=1;exitX=0.5;exitY=1;exitDx=0;exitDy=0;entryX=0.5;entryY=0;entryDx=0;entryDy=0;" edge="1" source="2QcikKB0XpCSD9qSnk93-161" target="2QcikKB0XpCSD9qSnk93-162" parent="1">
          <mxGeometry width="50" height="50" relative="1" as="geometry">
            <mxPoint x="360" y="-1910" as="sourcePoint" />
            <mxPoint x="410" y="-1960" as="targetPoint" />
          </mxGeometry>
        </mxCell>
        <mxCell id="2QcikKB0XpCSD9qSnk93-168" value="" style="endArrow=classic;html=1;exitX=0.5;exitY=1;exitDx=0;exitDy=0;entryX=0.5;entryY=0;entryDx=0;entryDy=0;" edge="1" source="2QcikKB0XpCSD9qSnk93-162" target="2QcikKB0XpCSD9qSnk93-164" parent="1">
          <mxGeometry width="50" height="50" relative="1" as="geometry">
            <mxPoint x="360" y="-1910" as="sourcePoint" />
            <mxPoint x="410" y="-1960" as="targetPoint" />
          </mxGeometry>
        </mxCell>
        <mxCell id="2QcikKB0XpCSD9qSnk93-169" value="" style="endArrow=classic;html=1;entryX=0.5;entryY=0;entryDx=0;entryDy=0;" edge="1" target="2QcikKB0XpCSD9qSnk93-165" parent="1">
          <mxGeometry width="50" height="50" relative="1" as="geometry">
            <mxPoint x="480" y="-1933" as="sourcePoint" />
            <mxPoint x="410" y="-1960" as="targetPoint" />
          </mxGeometry>
        </mxCell>
        <mxCell id="2QcikKB0XpCSD9qSnk93-170" style="edgeStyle=orthogonalEdgeStyle;rounded=0;orthogonalLoop=1;jettySize=auto;html=1;exitX=0.5;exitY=1;exitDx=0;exitDy=0;" edge="1" source="2QcikKB0XpCSD9qSnk93-172" parent="1">
          <mxGeometry relative="1" as="geometry">
            <mxPoint x="350" y="-1850" as="targetPoint" />
          </mxGeometry>
        </mxCell>
        <mxCell id="2QcikKB0XpCSD9qSnk93-171" style="edgeStyle=orthogonalEdgeStyle;rounded=0;orthogonalLoop=1;jettySize=auto;html=1;exitX=0.5;exitY=1;exitDx=0;exitDy=0;" edge="1" source="2QcikKB0XpCSD9qSnk93-172" parent="1">
          <mxGeometry relative="1" as="geometry">
            <mxPoint x="350" y="-1770" as="targetPoint" />
          </mxGeometry>
        </mxCell>
        <mxCell id="2QcikKB0XpCSD9qSnk93-172" value="" style="ellipse;whiteSpace=wrap;html=1;aspect=fixed;fillColor=#f0a30a;strokeColor=#BD7000;fontColor=#ffffff;" vertex="1" parent="1">
          <mxGeometry x="340" y="-1856" width="20" height="20" as="geometry" />
        </mxCell>
        <mxCell id="2QcikKB0XpCSD9qSnk93-173" value="" style="endArrow=classic;html=1;exitX=0;exitY=0.5;exitDx=0;exitDy=0;entryX=1;entryY=0.5;entryDx=0;entryDy=0;" edge="1" source="2QcikKB0XpCSD9qSnk93-162" target="2QcikKB0XpCSD9qSnk93-158" parent="1">
          <mxGeometry width="50" height="50" relative="1" as="geometry">
            <mxPoint x="360" y="-1910" as="sourcePoint" />
            <mxPoint x="410" y="-1960" as="targetPoint" />
          </mxGeometry>
        </mxCell>
        <mxCell id="2QcikKB0XpCSD9qSnk93-174" value="" style="endArrow=classic;html=1;exitX=0;exitY=0.5;exitDx=0;exitDy=0;entryX=1;entryY=0.5;entryDx=0;entryDy=0;" edge="1" source="2QcikKB0XpCSD9qSnk93-165" target="2QcikKB0XpCSD9qSnk93-172" parent="1">
          <mxGeometry width="50" height="50" relative="1" as="geometry">
            <mxPoint x="360" y="-1910" as="sourcePoint" />
            <mxPoint x="410" y="-1960" as="targetPoint" />
          </mxGeometry>
        </mxCell>
        <mxCell id="2QcikKB0XpCSD9qSnk93-175" value="" style="ellipse;whiteSpace=wrap;html=1;aspect=fixed;fillColor=#0050ef;strokeColor=#001DBC;fontColor=#ffffff;" vertex="1" parent="1">
          <mxGeometry x="180" y="-1890" width="20" height="20" as="geometry" />
        </mxCell>
        <mxCell id="2QcikKB0XpCSD9qSnk93-176" value="" style="ellipse;whiteSpace=wrap;html=1;aspect=fixed;fillColor=#0050ef;strokeColor=#001DBC;fontColor=#ffffff;" vertex="1" parent="1">
          <mxGeometry x="180" y="-1840" width="20" height="20" as="geometry" />
        </mxCell>
        <mxCell id="2QcikKB0XpCSD9qSnk93-177" value="" style="ellipse;whiteSpace=wrap;html=1;aspect=fixed;fillColor=#0050ef;strokeColor=#001DBC;fontColor=#ffffff;" vertex="1" parent="1">
          <mxGeometry x="180" y="-1790" width="20" height="20" as="geometry" />
        </mxCell>
        <mxCell id="2QcikKB0XpCSD9qSnk93-178" value="" style="endArrow=classic;html=1;exitX=0;exitY=1;exitDx=0;exitDy=0;entryX=1;entryY=0.5;entryDx=0;entryDy=0;" edge="1" source="2QcikKB0XpCSD9qSnk93-158" target="2QcikKB0XpCSD9qSnk93-175" parent="1">
          <mxGeometry width="50" height="50" relative="1" as="geometry">
            <mxPoint x="360" y="-1910" as="sourcePoint" />
            <mxPoint x="410" y="-1960" as="targetPoint" />
          </mxGeometry>
        </mxCell>
        <mxCell id="2QcikKB0XpCSD9qSnk93-179" value="" style="endArrow=classic;html=1;exitX=0.5;exitY=1;exitDx=0;exitDy=0;entryX=0.5;entryY=0;entryDx=0;entryDy=0;" edge="1" source="2QcikKB0XpCSD9qSnk93-175" target="2QcikKB0XpCSD9qSnk93-176" parent="1">
          <mxGeometry width="50" height="50" relative="1" as="geometry">
            <mxPoint x="360" y="-1910" as="sourcePoint" />
            <mxPoint x="410" y="-1960" as="targetPoint" />
          </mxGeometry>
        </mxCell>
        <mxCell id="2QcikKB0XpCSD9qSnk93-180" value="" style="endArrow=classic;html=1;exitX=0.5;exitY=1;exitDx=0;exitDy=0;entryX=0.5;entryY=0;entryDx=0;entryDy=0;" edge="1" source="2QcikKB0XpCSD9qSnk93-176" target="2QcikKB0XpCSD9qSnk93-177" parent="1">
          <mxGeometry width="50" height="50" relative="1" as="geometry">
            <mxPoint x="360" y="-1910" as="sourcePoint" />
            <mxPoint x="410" y="-1960" as="targetPoint" />
          </mxGeometry>
        </mxCell>
        <mxCell id="2QcikKB0XpCSD9qSnk93-181" style="edgeStyle=orthogonalEdgeStyle;rounded=0;orthogonalLoop=1;jettySize=auto;html=1;exitX=0.5;exitY=1;exitDx=0;exitDy=0;" edge="1" source="2QcikKB0XpCSD9qSnk93-182" parent="1">
          <mxGeometry relative="1" as="geometry">
            <mxPoint x="350" y="-1690" as="targetPoint" />
          </mxGeometry>
        </mxCell>
        <mxCell id="2QcikKB0XpCSD9qSnk93-182" value="" style="ellipse;whiteSpace=wrap;html=1;aspect=fixed;fillColor=#f0a30a;strokeColor=#BD7000;fontColor=#ffffff;" vertex="1" parent="1">
          <mxGeometry x="340" y="-1770" width="20" height="20" as="geometry" />
        </mxCell>
        <mxCell id="2QcikKB0XpCSD9qSnk93-183" value="" style="ellipse;whiteSpace=wrap;html=1;aspect=fixed;fillColor=#647687;strokeColor=#314354;fontColor=#ffffff;" vertex="1" parent="1">
          <mxGeometry x="90" y="-1750" width="20" height="20" as="geometry" />
        </mxCell>
        <mxCell id="2QcikKB0XpCSD9qSnk93-184" value="" style="endArrow=classic;html=1;entryX=0.5;entryY=0;entryDx=0;entryDy=0;" edge="1" target="2QcikKB0XpCSD9qSnk93-183" parent="1">
          <mxGeometry width="50" height="50" relative="1" as="geometry">
            <mxPoint x="100" y="-1970" as="sourcePoint" />
            <mxPoint x="410" y="-1960" as="targetPoint" />
          </mxGeometry>
        </mxCell>
        <mxCell id="2QcikKB0XpCSD9qSnk93-185" value="" style="endArrow=classic;html=1;exitX=1;exitY=1;exitDx=0;exitDy=0;entryX=0;entryY=1;entryDx=0;entryDy=0;" edge="1" source="2QcikKB0XpCSD9qSnk93-183" target="2QcikKB0XpCSD9qSnk93-182" parent="1">
          <mxGeometry width="50" height="50" relative="1" as="geometry">
            <mxPoint x="360" y="-1910" as="sourcePoint" />
            <mxPoint x="410" y="-1960" as="targetPoint" />
          </mxGeometry>
        </mxCell>
        <mxCell id="2QcikKB0XpCSD9qSnk93-186" value="" style="endArrow=classic;html=1;exitX=1;exitY=0.5;exitDx=0;exitDy=0;entryX=0;entryY=0;entryDx=0;entryDy=0;" edge="1" source="2QcikKB0XpCSD9qSnk93-177" target="2QcikKB0XpCSD9qSnk93-182" parent="1">
          <mxGeometry width="50" height="50" relative="1" as="geometry">
            <mxPoint x="360" y="-1910" as="sourcePoint" />
            <mxPoint x="410" y="-1960" as="targetPoint" />
          </mxGeometry>
        </mxCell>
        <mxCell id="2QcikKB0XpCSD9qSnk93-187" value="" style="ellipse;whiteSpace=wrap;html=1;aspect=fixed;fillColor=#f0a30a;strokeColor=#BD7000;fontColor=#ffffff;" vertex="1" parent="1">
          <mxGeometry x="340" y="-1690" width="20" height="20" as="geometry" />
        </mxCell>
        <mxCell id="2QcikKB0XpCSD9qSnk93-188" value="" style="ellipse;whiteSpace=wrap;html=1;aspect=fixed;fillColor=#647687;strokeColor=#314354;fontColor=#ffffff;" vertex="1" parent="1">
          <mxGeometry x="470" y="-1690" width="20" height="20" as="geometry" />
        </mxCell>
        <mxCell id="2QcikKB0XpCSD9qSnk93-189" value="" style="endArrow=classic;html=1;exitX=1;exitY=0.5;exitDx=0;exitDy=0;entryX=0;entryY=0.5;entryDx=0;entryDy=0;" edge="1" source="2QcikKB0XpCSD9qSnk93-182" target="2QcikKB0XpCSD9qSnk93-188" parent="1">
          <mxGeometry width="50" height="50" relative="1" as="geometry">
            <mxPoint x="360" y="-1680" as="sourcePoint" />
            <mxPoint x="410" y="-1730" as="targetPoint" />
          </mxGeometry>
        </mxCell>
        <mxCell id="2QcikKB0XpCSD9qSnk93-190" value="" style="endArrow=classic;html=1;exitX=0;exitY=1;exitDx=0;exitDy=0;entryX=1;entryY=0.5;entryDx=0;entryDy=0;" edge="1" source="2QcikKB0XpCSD9qSnk93-188" target="2QcikKB0XpCSD9qSnk93-187" parent="1">
          <mxGeometry width="50" height="50" relative="1" as="geometry">
            <mxPoint x="360" y="-1680" as="sourcePoint" />
            <mxPoint x="410" y="-1730" as="targetPoint" />
          </mxGeometry>
        </mxCell>
        <mxCell id="2QcikKB0XpCSD9qSnk93-191" value="hotfixes" style="text;html=1;strokeColor=none;fillColor=none;align=center;verticalAlign=middle;whiteSpace=wrap;rounded=0;" vertex="1" parent="1">
          <mxGeometry x="570" y="-2400" width="60" height="30" as="geometry" />
        </mxCell>
        <mxCell id="2QcikKB0XpCSD9qSnk93-192" value="" style="ellipse;whiteSpace=wrap;html=1;aspect=fixed;fillColor=#6a00ff;strokeColor=#3700CC;fontColor=#ffffff;" vertex="1" parent="1">
          <mxGeometry x="590" y="-2160" width="20" height="20" as="geometry" />
        </mxCell>
        <mxCell id="2QcikKB0XpCSD9qSnk93-193" value="" style="endArrow=classic;html=1;exitX=0;exitY=0.5;exitDx=0;exitDy=0;entryX=1;entryY=0.5;entryDx=0;entryDy=0;" edge="1" source="2QcikKB0XpCSD9qSnk93-192" target="2QcikKB0XpCSD9qSnk93-141" parent="1">
          <mxGeometry width="50" height="50" relative="1" as="geometry">
            <mxPoint x="360" y="-2200" as="sourcePoint" />
            <mxPoint x="410" y="-2250" as="targetPoint" />
          </mxGeometry>
        </mxCell>
        <mxCell id="2QcikKB0XpCSD9qSnk93-194" value="master" style="text;html=1;strokeColor=none;fillColor=none;align=center;verticalAlign=middle;whiteSpace=wrap;rounded=0;" vertex="1" parent="1">
          <mxGeometry x="700" y="-2400" width="60" height="30" as="geometry" />
        </mxCell>
        <mxCell id="2QcikKB0XpCSD9qSnk93-195" value="" style="ellipse;whiteSpace=wrap;html=1;aspect=fixed;fillColor=#e51400;strokeColor=#B20000;fontColor=#ffffff;" vertex="1" parent="1">
          <mxGeometry x="720" y="-2330" width="20" height="20" as="geometry" />
        </mxCell>
        <mxCell id="2QcikKB0XpCSD9qSnk93-196" value="" style="endArrow=classic;html=1;exitX=0;exitY=0.5;exitDx=0;exitDy=0;entryX=1;entryY=0.5;entryDx=0;entryDy=0;" edge="1" source="2QcikKB0XpCSD9qSnk93-195" target="2QcikKB0XpCSD9qSnk93-136" parent="1">
          <mxGeometry width="50" height="50" relative="1" as="geometry">
            <mxPoint x="360" y="-2280" as="sourcePoint" />
            <mxPoint x="450" y="-2480" as="targetPoint" />
          </mxGeometry>
        </mxCell>
        <mxCell id="2QcikKB0XpCSD9qSnk93-197" value="" style="endArrow=classic;html=1;exitX=0;exitY=1;exitDx=0;exitDy=0;entryX=1;entryY=0;entryDx=0;entryDy=0;" edge="1" source="2QcikKB0XpCSD9qSnk93-195" target="2QcikKB0XpCSD9qSnk93-192" parent="1">
          <mxGeometry width="50" height="50" relative="1" as="geometry">
            <mxPoint x="360" y="-2280" as="sourcePoint" />
            <mxPoint x="410" y="-2330" as="targetPoint" />
          </mxGeometry>
        </mxCell>
        <mxCell id="2QcikKB0XpCSD9qSnk93-198" value="" style="ellipse;whiteSpace=wrap;html=1;aspect=fixed;fillColor=#e51400;strokeColor=#B20000;fontColor=#ffffff;" vertex="1" parent="1">
          <mxGeometry x="720" y="-2090" width="20" height="20" as="geometry" />
        </mxCell>
        <mxCell id="2QcikKB0XpCSD9qSnk93-199" value="" style="endArrow=classic;html=1;exitX=0.5;exitY=1;exitDx=0;exitDy=0;entryX=0.5;entryY=0;entryDx=0;entryDy=0;" edge="1" source="2QcikKB0XpCSD9qSnk93-195" target="2QcikKB0XpCSD9qSnk93-198" parent="1">
          <mxGeometry width="50" height="50" relative="1" as="geometry">
            <mxPoint x="360" y="-2200" as="sourcePoint" />
            <mxPoint x="410" y="-2250" as="targetPoint" />
          </mxGeometry>
        </mxCell>
        <mxCell id="2QcikKB0XpCSD9qSnk93-200" value="" style="endArrow=classic;html=1;exitX=1;exitY=1;exitDx=0;exitDy=0;entryX=0;entryY=0;entryDx=0;entryDy=0;" edge="1" source="2QcikKB0XpCSD9qSnk93-192" target="2QcikKB0XpCSD9qSnk93-198" parent="1">
          <mxGeometry width="50" height="50" relative="1" as="geometry">
            <mxPoint x="360" y="-2200" as="sourcePoint" />
            <mxPoint x="410" y="-2250" as="targetPoint" />
          </mxGeometry>
        </mxCell>
        <mxCell id="2QcikKB0XpCSD9qSnk93-201" value="" style="ellipse;whiteSpace=wrap;html=1;aspect=fixed;fillColor=#a20025;strokeColor=#6F0000;fontColor=#ffffff;" vertex="1" parent="1">
          <mxGeometry x="720" y="-1690" width="20" height="20" as="geometry" />
        </mxCell>
        <mxCell id="2QcikKB0XpCSD9qSnk93-202" value="" style="ellipse;whiteSpace=wrap;html=1;aspect=fixed;fillColor=#e51400;strokeColor=#B20000;fontColor=#ffffff;" vertex="1" parent="1">
          <mxGeometry x="720" y="-1890" width="20" height="20" as="geometry" />
        </mxCell>
        <mxCell id="2QcikKB0XpCSD9qSnk93-203" value="" style="endArrow=classic;html=1;exitX=1;exitY=1;exitDx=0;exitDy=0;entryX=0;entryY=0.5;entryDx=0;entryDy=0;" edge="1" source="2QcikKB0XpCSD9qSnk93-188" target="2QcikKB0XpCSD9qSnk93-201" parent="1">
          <mxGeometry width="50" height="50" relative="1" as="geometry">
            <mxPoint x="360" y="-1710" as="sourcePoint" />
            <mxPoint x="410" y="-1760" as="targetPoint" />
          </mxGeometry>
        </mxCell>
        <mxCell id="2QcikKB0XpCSD9qSnk93-204" value="" style="endArrow=classic;html=1;exitX=0.5;exitY=1;exitDx=0;exitDy=0;entryX=0.5;entryY=0;entryDx=0;entryDy=0;" edge="1" source="2QcikKB0XpCSD9qSnk93-202" target="2QcikKB0XpCSD9qSnk93-201" parent="1">
          <mxGeometry width="50" height="50" relative="1" as="geometry">
            <mxPoint x="360" y="-1710" as="sourcePoint" />
            <mxPoint x="410" y="-1760" as="targetPoint" />
          </mxGeometry>
        </mxCell>
        <mxCell id="2QcikKB0XpCSD9qSnk93-205" value="" style="endArrow=classic;html=1;exitX=0.5;exitY=1;exitDx=0;exitDy=0;" edge="1" source="2QcikKB0XpCSD9qSnk93-198" parent="1">
          <mxGeometry width="50" height="50" relative="1" as="geometry">
            <mxPoint x="360" y="-1860" as="sourcePoint" />
            <mxPoint x="730" y="-1890" as="targetPoint" />
          </mxGeometry>
        </mxCell>
        <mxCell id="2QcikKB0XpCSD9qSnk93-206" value="incorporate bug fix in&amp;nbsp;&lt;br&gt;develop" style="text;html=1;strokeColor=none;fillColor=none;align=center;verticalAlign=middle;whiteSpace=wrap;rounded=0;" vertex="1" parent="1">
          <mxGeometry x="384" y="-2185" width="60" height="30" as="geometry" />
        </mxCell>
        <mxCell id="2QcikKB0XpCSD9qSnk93-207" value="" style="endArrow=classic;html=1;exitX=0.25;exitY=1;exitDx=0;exitDy=0;entryX=1;entryY=0;entryDx=0;entryDy=0;" edge="1" source="2QcikKB0XpCSD9qSnk93-206" target="2QcikKB0XpCSD9qSnk93-141" parent="1">
          <mxGeometry width="50" height="50" relative="1" as="geometry">
            <mxPoint x="360" y="-2090" as="sourcePoint" />
            <mxPoint x="490" y="-2070" as="targetPoint" />
          </mxGeometry>
        </mxCell>
        <mxCell id="2QcikKB0XpCSD9qSnk93-208" value="severe bug&lt;br&gt;fixed for&amp;nbsp;&lt;br&gt;production&lt;br&gt;hotfix 0.2" style="text;html=1;strokeColor=none;fillColor=none;align=center;verticalAlign=middle;whiteSpace=wrap;rounded=0;" vertex="1" parent="1">
          <mxGeometry x="520" y="-2270" width="80" height="30" as="geometry" />
        </mxCell>
        <mxCell id="2QcikKB0XpCSD9qSnk93-209" value="" style="endArrow=classic;html=1;entryX=0;entryY=0;entryDx=0;entryDy=0;" edge="1" source="2QcikKB0XpCSD9qSnk93-208" target="2QcikKB0XpCSD9qSnk93-192" parent="1">
          <mxGeometry width="50" height="50" relative="1" as="geometry">
            <mxPoint x="360" y="-2190" as="sourcePoint" />
            <mxPoint x="410" y="-2240" as="targetPoint" />
          </mxGeometry>
        </mxCell>
        <mxCell id="2QcikKB0XpCSD9qSnk93-210" value="Start of release&lt;br&gt;Branch for&amp;nbsp;&lt;br&gt;1.0" style="text;html=1;strokeColor=none;fillColor=none;align=center;verticalAlign=middle;whiteSpace=wrap;rounded=0;" vertex="1" parent="1">
          <mxGeometry x="540" y="-2100" width="70" height="60" as="geometry" />
        </mxCell>
        <mxCell id="2QcikKB0XpCSD9qSnk93-211" value="" style="endArrow=classic;html=1;entryX=1;entryY=0;entryDx=0;entryDy=0;" edge="1" source="2QcikKB0XpCSD9qSnk93-210" target="2QcikKB0XpCSD9qSnk93-161" parent="1">
          <mxGeometry width="50" height="50" relative="1" as="geometry">
            <mxPoint x="360" y="-1990" as="sourcePoint" />
            <mxPoint x="410" y="-2040" as="targetPoint" />
          </mxGeometry>
        </mxCell>
        <mxCell id="2QcikKB0XpCSD9qSnk93-212" value="Only&lt;br&gt;bugfixes!" style="text;html=1;strokeColor=none;fillColor=none;align=center;verticalAlign=middle;whiteSpace=wrap;rounded=0;" vertex="1" parent="1">
          <mxGeometry x="545" y="-1960" width="60" height="30" as="geometry" />
        </mxCell>
        <mxCell id="2QcikKB0XpCSD9qSnk93-213" value="" style="endArrow=classic;html=1;exitX=0;exitY=1;exitDx=0;exitDy=0;entryX=1;entryY=0.5;entryDx=0;entryDy=0;" edge="1" source="2QcikKB0XpCSD9qSnk93-212" target="2QcikKB0XpCSD9qSnk93-164" parent="1">
          <mxGeometry width="50" height="50" relative="1" as="geometry">
            <mxPoint x="360" y="-1990" as="sourcePoint" />
            <mxPoint x="410" y="-2040" as="targetPoint" />
          </mxGeometry>
        </mxCell>
        <mxCell id="2QcikKB0XpCSD9qSnk93-214" value="Continuosly merged back into develop" style="text;html=1;strokeColor=none;fillColor=none;align=center;verticalAlign=middle;whiteSpace=wrap;rounded=0;" vertex="1" parent="1">
          <mxGeometry x="420" y="-1800" width="60" height="30" as="geometry" />
        </mxCell>
        <mxCell id="2QcikKB0XpCSD9qSnk93-215" value="" style="endArrow=classic;html=1;" edge="1" source="2QcikKB0XpCSD9qSnk93-214" parent="1">
          <mxGeometry width="50" height="50" relative="1" as="geometry">
            <mxPoint x="360" y="-1770" as="sourcePoint" />
            <mxPoint x="420" y="-1910" as="targetPoint" />
          </mxGeometry>
        </mxCell>
        <mxCell id="2QcikKB0XpCSD9qSnk93-216" value="Tag&amp;nbsp;&lt;br&gt;0.1" style="text;html=1;strokeColor=none;fillColor=none;align=center;verticalAlign=middle;whiteSpace=wrap;rounded=0;" vertex="1" parent="1">
          <mxGeometry x="750" y="-2350" width="60" height="30" as="geometry" />
        </mxCell>
        <mxCell id="2QcikKB0XpCSD9qSnk93-217" value="Tag&amp;nbsp;&lt;br&gt;0.2" style="text;html=1;strokeColor=none;fillColor=none;align=center;verticalAlign=middle;whiteSpace=wrap;rounded=0;" vertex="1" parent="1">
          <mxGeometry x="750" y="-2100" width="60" height="30" as="geometry" />
        </mxCell>
        <mxCell id="2QcikKB0XpCSD9qSnk93-218" value="Tag&amp;nbsp;&lt;br&gt;1" style="text;html=1;strokeColor=none;fillColor=none;align=center;verticalAlign=middle;whiteSpace=wrap;rounded=0;" vertex="1" parent="1">
          <mxGeometry x="750" y="-1895" width="60" height="30" as="geometry" />
        </mxCell>
        <mxCell id="2QcikKB0XpCSD9qSnk93-219" value="" style="endArrow=classic;html=1;entryX=0;entryY=0;entryDx=0;entryDy=0;exitX=1;exitY=1;exitDx=0;exitDy=0;" edge="1" source="2QcikKB0XpCSD9qSnk93-165" target="2QcikKB0XpCSD9qSnk93-202" parent="1">
          <mxGeometry width="50" height="50" relative="1" as="geometry">
            <mxPoint x="360" y="-1770" as="sourcePoint" />
            <mxPoint x="410" y="-1820" as="targetPoint" />
          </mxGeometry>
        </mxCell>
        <mxCell id="2QcikKB0XpCSD9qSnk93-220" value="" style="endArrow=classic;html=1;exitX=1;exitY=1;exitDx=0;exitDy=0;entryX=0;entryY=0;entryDx=0;entryDy=0;" edge="1" source="2QcikKB0XpCSD9qSnk93-151" target="2QcikKB0XpCSD9qSnk93-138" parent="1">
          <mxGeometry width="50" height="50" relative="1" as="geometry">
            <mxPoint x="360" y="-2150" as="sourcePoint" />
            <mxPoint x="410" y="-2200" as="targetPoint" />
          </mxGeometry>
        </mxCell>
      </root>
    </mxGraphModel>
  </diagram>
</mxfile>
